<?xml version="1.0" encoding="utf-8"?>
<!-- Generator: Adobe Illustrator 17.1.0, SVG Export Plug-In . SVG Version: 6.00 Build 0)  -->
<!DOCTYPE svg PUBLIC "-//W3C//DTD SVG 1.1//EN" "http://www.w3.org/Graphics/SVG/1.1/DTD/svg11.dtd">
<svg version="1.1" id="Layer_1" xmlns="http://www.w3.org/2000/svg" xmlns:xlink="http://www.w3.org/1999/xlink" x="0px" y="0px"
	 viewBox="0 0 1024 1024" enable-background="new 0 0 1024 1024" xml:space="preserve">
<g>
	<path fill="#cccccc" d="M444.2,522.8c-0.5,3.7-1.3,7-2.5,9.9c-1.2,2.9-2.8,5.4-4.7,7.5c-1.9,2-4.2,3.6-6.8,4.7
		c-2.6,1.1-5.6,1.7-9,1.7c-1.6,0-3.2-0.1-4.7-0.3c-1.5-0.2-3-0.5-4.6-0.9l0.1-0.9c0.6-4.5,4.6-7.8,9.1-7.7c0,0,0,0,0,0
		c1.4,0,2.7-0.2,3.9-0.7s2.3-1.3,3.2-2.4c0.9-1.1,1.7-2.5,2.4-4.2c0.6-1.7,1.1-3.8,1.4-6.3l3.9-32c0.8-6.7,6.5-11.8,13.3-11.8h0.1
		L444.2,522.8z"/>
	<path fill="#cccccc" d="M480.5,545.7L480.5,545.7l-0.1-9.7c-2.1,3.2-4.4,5.8-7,7.7c-2.6,1.9-5.5,2.8-8.6,2.8c-1.8,0-3.4-0.4-5-1.1
		c-1.5-0.7-2.9-1.8-4-3.2c-1.1-1.4-2.1-3.1-2.7-5.2c-0.7-2.1-1-4.6-1-7.4s0.4-5.6,1.1-8.2c0.7-2.7,1.7-5.2,3-7.5
		c1.3-2.3,2.9-4.5,4.7-6.5c1.8-2,3.9-3.6,6.2-5.1c2.3-1.4,4.8-2.5,7.4-3.3c2.7-0.8,5.4-1.2,8.4-1.2c2.1,0,4.2,0.2,6.4,0.5
		c0,0,0,0,0.1,0c3.5,0.5,5.9,3.9,5.5,7.4l-3.8,30.1C490.3,541.3,485.9,545.4,480.5,545.7z M469.2,537.2c1.3,0,2.5-0.4,3.7-1.3
		c1.2-0.9,2.4-2,3.4-3.6c1.1-1.5,2.1-3.3,3-5.4c0.9-2.1,1.7-4.3,2.4-6.6l1.8-14.3c-0.8-0.1-1.6-0.1-2.3-0.1c-2.5,0-4.9,0.6-7.1,1.7
		c-2.2,1.2-4.1,2.7-5.7,4.7c-1.6,2-2.8,4.3-3.7,6.9c-0.9,2.6-1.4,5.4-1.4,8.3c0,3.3,0.5,5.7,1.6,7.3
		C466,536.5,467.4,537.2,469.2,537.2z"/>
	<path fill="#cccccc" d="M501.2,498.7h1.7c0.2,0,1,0,2,0.1c4.8,0.3,8.8,3.8,9.7,8.4c0,0.1,0,0.1,0,0.2l5,25.2
		c-1-5.2-0.8-3.7-0.6-2.2c0.1,1.5,0.2,3,0.3,4.4c0.4-1.5,0.9-2.9,1.4-4.4c0.5-1.5,1.1-3,1.8-4.5l9.1-20.3c0,0,0-0.1,0.1-0.1
		c2-3.9,5.9-6.5,10.3-6.7c1-0.1,1.7-0.1,1.9-0.1l2.1,0l-19.1,38.7c-2.6,5.2-7.9,8.5-13.7,8.5H513L501.2,498.7z"/>
	<path fill="#cccccc" d="M546.9,545.8l8.3-68.3h0.1c5.9,0,10.4,5.1,9.7,11l-5.6,46.4c-0.8,6.3-6.1,11-12.4,11H546.9z"/>
	<path fill="#cccccc" d="M587.2,546.5c-2.6,0-5-0.4-7.2-1.3c-2.2-0.9-4.1-2.2-5.7-3.8c-1.6-1.7-2.9-3.8-3.8-6.2
		c-0.9-2.5-1.4-5.3-1.4-8.4c0-4.1,0.7-7.9,2-11.4c1.3-3.5,3.1-6.6,5.3-9.2c2.3-2.6,4.9-4.6,7.9-6.1c3-1.5,6.2-2.2,9.6-2.2
		c2.6,0,5,0.4,7.2,1.3c2.2,0.9,4.1,2.2,5.8,3.8c1.6,1.7,2.9,3.8,3.8,6.2c0.9,2.5,1.4,5.3,1.4,8.4c0,4-0.7,7.8-2,11.3
		c-1.3,3.5-3.1,6.6-5.4,9.2c-2.3,2.6-4.9,4.6-7.9,6.1C593.8,545.8,590.6,546.5,587.2,546.5z M588.2,537.8c1.9,0,3.6-0.5,5.2-1.6
		c1.5-1.1,2.8-2.5,3.9-4.4c1.1-1.8,1.9-3.9,2.5-6.4c0.6-2.4,0.9-5,0.9-7.6c0-3.8-0.7-6.7-2-8.5c-1.3-1.8-3.3-2.7-5.9-2.7
		c-1.9,0-3.6,0.5-5.2,1.6c-1.5,1.1-2.8,2.5-3.9,4.4c-1.1,1.8-1.9,4-2.5,6.4c-0.6,2.4-0.9,5-0.9,7.7c0,3.8,0.6,6.6,1.9,8.4
		C583.6,536.9,585.6,537.8,588.2,537.8z"/>
</g>
</svg>
